<svg width="41" height="50" viewBox="0 0 41 50" fill="none" xmlns="http://www.w3.org/2000/svg">
<path d="M19.7232 4.36075C17.3422 4.42153 14.9192 5.76756 12.5966 6.65758C10.5862 7.42789 9.16302 7.28795 8.47384 5.78905C7.69707 4.09867 8.81324 3.05149 10.2208 2.47636C12.3565 1.60296 14.5557 0.714791 16.8225 0.310915C22.6681 -0.729541 27.9109 0.90569 32.5585 4.25397C37.4826 7.80172 40.1037 12.6728 40.4541 18.4217C40.595 20.7351 39.6994 23.143 39.0362 25.446C38.674 26.7049 37.2931 27.288 36.1289 26.6748C35.3334 26.2556 34.6136 25.0869 34.5449 24.2055C34.4508 22.9951 35.1407 21.7515 35.2594 20.5024C36.0673 12.0271 28.8713 4.65348 19.7232 4.36075Z" fill="white"/>
<path d="M20.122 44.4507C23.8484 39.6105 27.2771 35.1594 30.7014 30.7051C30.8981 30.4496 31.0399 30.1538 31.236 29.8984C32.0785 28.8026 33.2327 28.5504 34.376 29.2054C35.626 29.9207 35.6522 31.1712 34.9439 32.2389C33.5521 34.3346 32.0759 36.3843 30.5174 38.3663C27.7964 41.8268 25.0058 45.2375 22.2056 48.6371C20.7218 50.4382 19.2903 50.4494 17.8327 48.6925C15.5161 45.8988 13.2569 43.0617 10.9504 40.2606C10.0018 39.1095 9.66847 37.9654 11.0021 36.925C12.4156 35.8213 13.5565 36.4352 14.5375 37.6379C16.2826 39.7783 18.0384 41.9107 20.122 44.4507Z" fill="#00DA91"/>
<path d="M20.3643 31.8363C18.2686 28.6655 15.3799 24.6831 13.7592 21.3092C12.0434 17.7373 14.3346 13.7072 18.073 12.751C22.4277 11.6372 27.4529 14.212 27.4529 18.2948C27.4529 23.0539 22.3429 28.6456 20.3643 31.8363ZM26.2632 9.15362C21.7927 6.80542 16.1709 7.29157 12.3664 10.3556C8.81049 13.2192 7.29659 18.4811 8.79172 22.5423C10.6123 27.4851 14.2292 31.3017 17.4938 35.3257C17.574 35.4244 17.6518 35.5106 17.7288 35.5963C17.9268 35.8633 18.1223 36.1328 18.3126 36.4029C19.6323 38.2823 20.9287 38.2698 22.2717 36.3451C23.3804 34.755 24.482 33.1582 25.583 31.56C25.9066 31.1602 28.5499 27.3132 28.915 26.683C29.6683 25.4667 31.5661 22.5516 32.058 20.224C32.9842 15.8492 30.4457 11.3503 26.2632 9.15362Z" fill="white"/>
<path d="M7.65744e-05 19.0019C-0.0109483 15.3303 1.16889 12.008 3.29795 8.97789C4.21195 7.67818 5.51084 7.26233 6.93519 8.13946C8.30681 8.98285 8.34513 10.2807 7.52475 11.4784C3.79985 16.9185 4.56101 22.2768 7.73085 27.6216C8.12348 28.2841 8.48303 28.9687 8.93479 29.593C9.90018 30.9255 9.5472 32.0806 8.25675 32.8673C6.95333 33.6615 5.61611 33.3853 4.74897 32.1292C1.99452 28.1395 0.0475548 23.8743 7.65744e-05 19.0019Z" fill="white"/>
</svg>
